# xmcd
# 
# Track frame offsets:
#     150
#     34870
#     81242
#     113735
#     156242
#     196555
#     222172
#     266737
#     288172
# 
# Disc length: 4325
# 
# Revision: 7
# Processed by: cddbd v1.5.2PL0 Copyright (c) Steve Scherf et al.
# Submitted via: fre:ac v1.0.17
# 
DISCID=7710e309
DTITLE=Pat Metheny Group - Speaking Of Now
DYEAR=2002
DGENRE=Jazz
TTITLE0=As It Is
TTITLE1=Proof
TTITLE2=Another Life
TTITLE3=The Gathering Sky
TTITLE4=You
TTITLE5=On Her Way
TTITLE6=A Place In The World
TTITLE7=Afternoon
TTITLE8=Wherever You Go
EXTD=
EXTT0=
EXTT1=
EXTT2=
EXTT3=
EXTT4=
EXTT5=
EXTT6=
EXTT7=
EXTT8=
PLAYORDER=
